<svg width="140" height="150" viewBox="0 0 140 150" fill="none" xmlns="http://www.w3.org/2000/svg">
<g filter="url(#filter0_d_158_2295)">
<circle cx="84" cy="85" r="50" fill="#FCFCFC"/>
<circle cx="84" cy="85" r="47.5" stroke="#3998F0" stroke-width="5"/>
</g>
<g clip-path="url(#clip0_158_2295)">
<path d="M129.214 85.4999C129.214 110.252 109.195 130.318 84.5002 130.318C59.8053 130.318 39.7861 110.252 39.7861 85.4999C39.7861 60.7475 59.8053 40.6816 84.5002 40.6816C109.195 40.6816 129.214 60.7475 129.214 85.4999Z" fill="white"/>
<path d="M129.214 85.4999C129.214 85.4481 129.212 85.3966 129.212 85.3448L101.421 57.4885L98.1456 61.8653L93.779 57.4885L90.5041 61.8653L86.1375 57.4885L82.8625 61.8653L78.4959 57.4885L75.2209 61.8653L70.8543 57.4885L67.5794 63.0689L62.1211 68.5399L56.5537 71.8225L60.9203 76.1993L56.5537 79.4818L60.9203 83.8586L56.5537 87.1412L60.9203 91.518L56.5537 94.8006L60.9203 99.1774L56.5537 102.46L84.3452 130.316C84.3969 130.316 84.4483 130.318 84.5 130.318C109.195 130.318 129.214 110.252 129.214 85.4999Z" fill="#DFDFDF"/>
<path d="M86.1377 57.4885H82.8628V64.7102H86.1377V57.4885Z" fill="#ACA8A1"/>
<path d="M86.1375 57.4885H84.5V64.7102H86.1375V57.4885Z" fill="#888785"/>
<path d="M101.421 57.4885H98.146V64.7102H101.421V57.4885Z" fill="#858381"/>
<path d="M93.7793 57.4885H90.5044V64.7102H93.7793V57.4885Z" fill="#858381"/>
<path d="M112.447 83.8586H105.242V87.1412H112.447V83.8586Z" fill="#858381"/>
<path d="M112.447 91.5181H105.242V94.8007H112.447V91.5181Z" fill="#858381"/>
<path d="M112.447 99.1772H105.242V102.46H112.447V99.1772Z" fill="#858381"/>
<path d="M112.447 68.5398H105.242V71.8224H112.447V68.5398Z" fill="#858381"/>
<path d="M112.447 76.1992H105.242V79.4818H112.447V76.1992Z" fill="#858381"/>
<path d="M101.421 106.29H98.146V113.511H101.421V106.29Z" fill="#858381"/>
<path d="M93.7793 106.29H90.5044V113.511H93.7793V106.29Z" fill="#858381"/>
<path d="M78.4961 57.4885H75.2212V64.7102H78.4961V57.4885Z" fill="#ACA8A1"/>
<path d="M70.8545 57.4885H67.5796V64.7102H70.8545V57.4885Z" fill="#ACA8A1"/>
<path d="M63.7586 83.8586H56.5537V87.1412H63.7586V83.8586Z" fill="#ACA8A1"/>
<path d="M63.7586 91.5181H56.5537V94.8007H63.7586V91.5181Z" fill="#ACA8A1"/>
<path d="M63.7586 99.1772H56.5537V102.46H63.7586V99.1772Z" fill="#ACA8A1"/>
<path d="M63.7586 68.5398H56.5537V71.8224H63.7586V68.5398Z" fill="#ACA8A1"/>
<path d="M63.7586 76.1992H56.5537V79.4818H63.7586V76.1992Z" fill="#ACA8A1"/>
<path d="M78.4961 106.29H75.2212V113.511H78.4961V106.29Z" fill="#ACA8A1"/>
<path d="M70.8545 106.29H67.5796V113.511H70.8545V106.29Z" fill="#ACA8A1"/>
<path d="M106.879 107.931H86.1374V106.29C86.1374 105.384 85.4028 104.648 84.4999 104.648C83.5971 104.648 82.8625 105.384 82.8625 106.29V107.931H62.1211V63.0688H106.879V107.931Z" fill="#5F5F5F"/>
<path d="M84.5 63.0688V104.648C85.4028 104.648 86.1375 105.384 86.1375 106.29V107.931H106.879V63.0688H84.5Z" fill="#525252"/>
<path d="M100.329 83.8586H95.4165V87.1412H100.329V83.8586Z" fill="white"/>
<path d="M73.5838 83.8586H68.6714V87.1412H73.5838V83.8586Z" fill="white"/>
<path d="M86.1377 69.634H82.8628V74.5579H86.1377V69.634Z" fill="white"/>
<path d="M86.1375 69.634H84.5V74.5579H86.1375V69.634Z" fill="white"/>
<path d="M97.0543 98.0832H71.9463V72.9167H97.0543V98.0832Z" fill="white"/>
<path d="M97.054 98.0832H84.5V72.9167H97.054V98.0832Z" fill="white"/>
<path d="M91.5664 88.0617C90.407 88.0617 89.4683 87.3267 89.4683 86.4189V84.1199C89.4683 83.2129 90.407 82.4771 91.5664 82.4771C92.7248 82.4771 93.6646 83.2129 93.6646 84.1199V86.4189C93.6646 87.3267 92.7248 88.0617 91.5664 88.0617Z" fill="black"/>
<path d="M84.4784 92.3983C83.0981 92.3983 81.801 91.8777 80.9202 90.9714C80.4342 90.4708 80.491 89.7106 81.0473 89.2739C81.6029 88.8366 82.4472 88.8877 82.9339 89.3876C83.307 89.772 83.8701 89.9922 84.4784 89.9922C85.0868 89.9922 85.6498 89.772 86.023 89.3876C86.5096 88.8877 87.3539 88.8366 87.9095 89.2739C88.4658 89.7106 88.5226 90.4708 88.0366 90.9714C87.1558 91.8777 85.8587 92.3983 84.4784 92.3983Z" fill="#767E86"/>
<path d="M90.3934 85.7659C89.8423 85.7611 89.3995 85.3625 89.4036 84.8749L89.4143 83.6402C89.4185 83.153 89.8681 82.7617 90.4192 82.7664C90.9698 82.7712 91.4132 83.1703 91.4089 83.6574L91.3983 84.8922C91.3941 85.3797 90.944 85.7706 90.3934 85.7659Z" fill="white"/>
<path d="M77.5059 88.2319C76.3465 88.2319 75.4077 87.4968 75.4077 86.589V84.2901C75.4077 83.3831 76.3465 82.6472 77.5059 82.6472C78.6643 82.6472 79.6041 83.3831 79.6041 84.2901V86.589C79.6041 87.4968 78.6643 88.2319 77.5059 88.2319Z" fill="#1A1A1A"/>
<path d="M76.3328 85.9368C75.7817 85.932 75.3389 85.5334 75.3431 85.0458L75.3537 83.8111C75.3579 83.3239 75.8076 82.9326 76.3587 82.9373C76.9092 82.9421 77.3526 83.3412 77.3484 83.8283L77.3378 85.0631C77.3336 85.5506 76.8834 85.9415 76.3328 85.9368Z" fill="white"/>
</g>
<circle cx="22" cy="126" r="10" fill="#3998F0"/>
<circle cx="15" cy="47" r="10" fill="#3998F0"/>
<circle cx="43" cy="16" r="5" fill="#3998F0"/>
<circle cx="71" cy="5" r="5" fill="#3998F0"/>
<circle cx="100" cy="10" r="5" fill="#3998F0"/>
<circle cx="7.5" cy="86.5" r="7.5" fill="#3998F0"/>
<defs>
<filter id="filter0_d_158_2295" x="28" y="28" width="112" height="112" filterUnits="userSpaceOnUse" color-interpolation-filters="sRGB">
<feFlood flood-opacity="0" result="BackgroundImageFix"/>
<feColorMatrix in="SourceAlpha" type="matrix" values="0 0 0 0 0 0 0 0 0 0 0 0 0 0 0 0 0 0 127 0" result="hardAlpha"/>
<feMorphology radius="2" operator="dilate" in="SourceAlpha" result="effect1_dropShadow_158_2295"/>
<feOffset dy="-1"/>
<feGaussianBlur stdDeviation="2"/>
<feComposite in2="hardAlpha" operator="out"/>
<feColorMatrix type="matrix" values="0 0 0 0 0 0 0 0 0 0 0 0 0 0 0 0 0 0 0.25 0"/>
<feBlend mode="normal" in2="BackgroundImageFix" result="effect1_dropShadow_158_2295"/>
<feBlend mode="normal" in="SourceGraphic" in2="effect1_dropShadow_158_2295" result="shape"/>
</filter>
<clipPath id="clip0_158_2295">
<rect width="91" height="129" fill="white" transform="translate(39 21)"/>
</clipPath>
</defs>
</svg>
