<svg width="98" height="88" viewBox="0 0 98 88" fill="none" xmlns="http://www.w3.org/2000/svg">
<ellipse cx="95.1541" cy="20.8689" rx="2.84553" ry="2.86885" fill="#3998F0"/>
<ellipse cx="30.8455" cy="20.8689" rx="2.84553" ry="2.86885" fill="#3998F0"/>
<ellipse cx="40.5203" cy="20.8689" rx="2.84553" ry="2.86885" fill="#3998F0"/>
<ellipse cx="49.6258" cy="20.8689" rx="2.84553" ry="2.86885" fill="#3998F0"/>
<ellipse cx="58.7318" cy="20.8689" rx="2.84553" ry="2.86885" fill="#3998F0"/>
<ellipse cx="67.8372" cy="20.8689" rx="2.84553" ry="2.86885" fill="#3998F0"/>
<ellipse cx="76.9432" cy="20.8689" rx="2.84553" ry="2.86885" fill="#3998F0"/>
<ellipse cx="86.0487" cy="20.8689" rx="2.84553" ry="2.86885" fill="#3998F0"/>
<ellipse cx="30.8455" cy="30.0493" rx="2.84553" ry="2.86885" fill="#3998F0"/>
<ellipse cx="40.5203" cy="30.0493" rx="2.84553" ry="2.86885" fill="#3998F0"/>
<ellipse cx="49.6258" cy="30.0493" rx="2.84553" ry="2.86885" fill="#3998F0"/>
<ellipse cx="58.7318" cy="30.0493" rx="2.84553" ry="2.86885" fill="#3998F0"/>
<ellipse cx="67.8372" cy="30.0493" rx="2.84553" ry="2.86885" fill="#3998F0"/>
<ellipse cx="76.9432" cy="30.0493" rx="2.84553" ry="2.86885" fill="#3998F0"/>
<ellipse cx="86.0487" cy="30.0493" rx="2.84553" ry="2.86885" fill="#3998F0"/>
<ellipse cx="95.1541" cy="30.0493" rx="2.84553" ry="2.86885" fill="#3998F0"/>
<ellipse cx="95.1541" cy="38.6557" rx="2.84553" ry="2.86885" fill="#3998F0"/>
<ellipse cx="30.8455" cy="39.2294" rx="2.84553" ry="2.86885" fill="#3998F0"/>
<ellipse cx="40.5203" cy="39.2294" rx="2.84553" ry="2.86885" fill="#3998F0"/>
<ellipse cx="49.6258" cy="39.2294" rx="2.84553" ry="2.86885" fill="#3998F0"/>
<ellipse cx="58.7318" cy="39.2294" rx="2.84553" ry="2.86885" fill="#3998F0"/>
<ellipse cx="67.8372" cy="39.2294" rx="2.84553" ry="2.86885" fill="#3998F0"/>
<ellipse cx="76.9432" cy="38.6557" rx="2.84553" ry="2.86885" fill="#3998F0"/>
<ellipse cx="86.0487" cy="38.6557" rx="2.84553" ry="2.86885" fill="#3998F0"/>
<ellipse cx="30.8455" cy="48.4099" rx="2.84553" ry="2.86885" fill="#3998F0"/>
<ellipse cx="40.5203" cy="48.4099" rx="2.84553" ry="2.86885" fill="#3998F0"/>
<ellipse cx="50.1951" cy="48.4099" rx="2.84553" ry="2.86885" fill="#3998F0"/>
<ellipse cx="58.7318" cy="48.4099" rx="2.84553" ry="2.86885" fill="#3998F0"/>
<ellipse cx="67.8372" cy="48.4099" rx="2.84553" ry="2.86885" fill="#3998F0"/>
<ellipse cx="76.9432" cy="48.4099" rx="2.84553" ry="2.86885" fill="#3998F0"/>
<ellipse cx="86.0487" cy="47.8361" rx="2.84553" ry="2.86885" fill="#3998F0"/>
<ellipse cx="95.1541" cy="47.8361" rx="2.84553" ry="2.86885" fill="#3998F0"/>
<ellipse cx="95.1541" cy="57.5903" rx="2.84553" ry="2.86885" fill="#3998F0"/>
<ellipse cx="30.8455" cy="57.5903" rx="2.84553" ry="2.86885" fill="#3998F0"/>
<ellipse cx="40.5203" cy="57.5903" rx="2.84553" ry="2.86885" fill="#3998F0"/>
<ellipse cx="49.6258" cy="57.5903" rx="2.84553" ry="2.86885" fill="#3998F0"/>
<ellipse cx="58.7318" cy="57.5903" rx="2.84553" ry="2.86885" fill="#3998F0"/>
<ellipse cx="67.8372" cy="57.5903" rx="2.84553" ry="2.86885" fill="#3998F0"/>
<ellipse cx="76.9432" cy="57.5903" rx="2.84553" ry="2.86885" fill="#3998F0"/>
<ellipse cx="86.0487" cy="57.5903" rx="2.84553" ry="2.86885" fill="#3998F0"/>
<ellipse cx="30.8455" cy="66.7705" rx="2.84553" ry="2.86885" fill="#3998F0"/>
<ellipse cx="40.5203" cy="66.7705" rx="2.84553" ry="2.86885" fill="#3998F0"/>
<ellipse cx="49.6258" cy="66.7705" rx="2.84553" ry="2.86885" fill="#3998F0"/>
<ellipse cx="58.7318" cy="66.7705" rx="2.84553" ry="2.86885" fill="#3998F0"/>
<ellipse cx="67.8372" cy="66.7705" rx="2.84553" ry="2.86885" fill="#3998F0"/>
<ellipse cx="76.9432" cy="66.7705" rx="2.84553" ry="2.86885" fill="#3998F0"/>
<ellipse cx="86.0487" cy="66.7705" rx="2.84553" ry="2.86885" fill="#3998F0"/>
<ellipse cx="95.1541" cy="66.7705" rx="2.84553" ry="2.86885" fill="#3998F0"/>
<ellipse cx="95.1541" cy="75.3769" rx="2.84553" ry="2.86885" fill="#3998F0"/>
<ellipse cx="30.8455" cy="75.9509" rx="2.84553" ry="2.86885" fill="#3998F0"/>
<ellipse cx="40.5203" cy="75.9509" rx="2.84553" ry="2.86885" fill="#3998F0"/>
<ellipse cx="49.6258" cy="75.9509" rx="2.84553" ry="2.86885" fill="#3998F0"/>
<ellipse cx="58.7318" cy="75.9509" rx="2.84553" ry="2.86885" fill="#3998F0"/>
<ellipse cx="67.8372" cy="75.9509" rx="2.84553" ry="2.86885" fill="#3998F0"/>
<ellipse cx="76.9432" cy="75.3769" rx="2.84553" ry="2.86885" fill="#3998F0"/>
<ellipse cx="86.0487" cy="75.3769" rx="2.84553" ry="2.86885" fill="#3998F0"/>
<ellipse cx="30.8455" cy="85.1311" rx="2.84553" ry="2.86885" fill="#3998F0"/>
<ellipse cx="40.5203" cy="85.1311" rx="2.84553" ry="2.86885" fill="#3998F0"/>
<ellipse cx="50.1951" cy="85.1311" rx="2.84553" ry="2.86885" fill="#3998F0"/>
<ellipse cx="58.7318" cy="85.1311" rx="2.84553" ry="2.86885" fill="#3998F0"/>
<ellipse cx="67.8372" cy="85.1311" rx="2.84553" ry="2.86885" fill="#3998F0"/>
<ellipse cx="76.9432" cy="85.1311" rx="2.84553" ry="2.86885" fill="#3998F0"/>
<ellipse cx="86.0487" cy="84.5576" rx="2.84553" ry="2.86885" fill="#3998F0"/>
<ellipse cx="95.1541" cy="84.5576" rx="2.84553" ry="2.86885" fill="#3998F0"/>
<ellipse cx="67.1541" cy="2.86885" rx="2.84553" ry="2.86885" fill="#9E9E9E"/>
<ellipse cx="2.84553" cy="2.86885" rx="2.84553" ry="2.86885" fill="#9E9E9E"/>
<ellipse cx="12.5203" cy="2.86885" rx="2.84553" ry="2.86885" fill="#9E9E9E"/>
<ellipse cx="21.6258" cy="2.86885" rx="2.84553" ry="2.86885" fill="#9E9E9E"/>
<ellipse cx="30.7318" cy="2.86885" rx="2.84553" ry="2.86885" fill="#9E9E9E"/>
<ellipse cx="39.8372" cy="2.86885" rx="2.84553" ry="2.86885" fill="#9E9E9E"/>
<ellipse cx="48.9432" cy="2.86885" rx="2.84553" ry="2.86885" fill="#9E9E9E"/>
<ellipse cx="58.0487" cy="2.86885" rx="2.84553" ry="2.86885" fill="#9E9E9E"/>
<ellipse cx="2.84553" cy="12.0493" rx="2.84553" ry="2.86885" fill="#9E9E9E"/>
<ellipse cx="12.5203" cy="12.0493" rx="2.84553" ry="2.86885" fill="#9E9E9E"/>
<ellipse cx="21.6258" cy="12.0493" rx="2.84553" ry="2.86885" fill="#9E9E9E"/>
<ellipse cx="30.7318" cy="12.0493" rx="2.84553" ry="2.86885" fill="#9E9E9E"/>
<ellipse cx="39.8372" cy="12.0493" rx="2.84553" ry="2.86885" fill="#9E9E9E"/>
<ellipse cx="48.9432" cy="12.0493" rx="2.84553" ry="2.86885" fill="#9E9E9E"/>
<ellipse cx="58.0487" cy="12.0493" rx="2.84553" ry="2.86885" fill="#9E9E9E"/>
<ellipse cx="67.1541" cy="12.0493" rx="2.84553" ry="2.86885" fill="#9E9E9E"/>
<ellipse cx="67.1541" cy="20.6557" rx="2.84553" ry="2.86885" fill="#9E9E9E"/>
<ellipse cx="2.84553" cy="21.2294" rx="2.84553" ry="2.86885" fill="#9E9E9E"/>
<ellipse cx="12.5203" cy="21.2294" rx="2.84553" ry="2.86885" fill="#9E9E9E"/>
<ellipse cx="21.6258" cy="21.2294" rx="2.84553" ry="2.86885" fill="#9E9E9E"/>
<ellipse cx="30.7318" cy="21.2294" rx="2.84553" ry="2.86885" fill="#9E9E9E"/>
<ellipse cx="39.8372" cy="21.2294" rx="2.84553" ry="2.86885" fill="#9E9E9E"/>
<ellipse cx="48.9432" cy="20.6557" rx="2.84553" ry="2.86885" fill="#9E9E9E"/>
<ellipse cx="58.0487" cy="20.6557" rx="2.84553" ry="2.86885" fill="#9E9E9E"/>
<ellipse cx="2.84553" cy="30.4099" rx="2.84553" ry="2.86885" fill="#9E9E9E"/>
<ellipse cx="12.5203" cy="30.4099" rx="2.84553" ry="2.86885" fill="#9E9E9E"/>
<ellipse cx="22.1951" cy="30.4099" rx="2.84553" ry="2.86885" fill="#9E9E9E"/>
<ellipse cx="30.7318" cy="30.4099" rx="2.84553" ry="2.86885" fill="#9E9E9E"/>
<ellipse cx="39.8372" cy="30.4099" rx="2.84553" ry="2.86885" fill="#9E9E9E"/>
<ellipse cx="48.9432" cy="30.4099" rx="2.84553" ry="2.86885" fill="#9E9E9E"/>
<ellipse cx="58.0487" cy="29.8361" rx="2.84553" ry="2.86885" fill="#9E9E9E"/>
<ellipse cx="67.1541" cy="29.8361" rx="2.84553" ry="2.86885" fill="#9E9E9E"/>
<ellipse cx="67.1541" cy="39.5903" rx="2.84553" ry="2.86885" fill="#9E9E9E"/>
<ellipse cx="2.84553" cy="39.5903" rx="2.84553" ry="2.86885" fill="#9E9E9E"/>
<ellipse cx="12.5203" cy="39.5903" rx="2.84553" ry="2.86885" fill="#9E9E9E"/>
<ellipse cx="21.6258" cy="39.5903" rx="2.84553" ry="2.86885" fill="#9E9E9E"/>
<ellipse cx="30.7318" cy="39.5903" rx="2.84553" ry="2.86885" fill="#9E9E9E"/>
<ellipse cx="39.8372" cy="39.5903" rx="2.84553" ry="2.86885" fill="#9E9E9E"/>
<ellipse cx="48.9432" cy="39.5903" rx="2.84553" ry="2.86885" fill="#9E9E9E"/>
<ellipse cx="58.0487" cy="39.5903" rx="2.84553" ry="2.86885" fill="#9E9E9E"/>
<ellipse cx="2.84553" cy="48.7705" rx="2.84553" ry="2.86885" fill="#9E9E9E"/>
<ellipse cx="12.5203" cy="48.7705" rx="2.84553" ry="2.86885" fill="#9E9E9E"/>
<ellipse cx="21.6258" cy="48.7705" rx="2.84553" ry="2.86885" fill="#9E9E9E"/>
<ellipse cx="30.7318" cy="48.7705" rx="2.84553" ry="2.86885" fill="#9E9E9E"/>
<ellipse cx="39.8372" cy="48.7705" rx="2.84553" ry="2.86885" fill="#9E9E9E"/>
<ellipse cx="48.9432" cy="48.7705" rx="2.84553" ry="2.86885" fill="#9E9E9E"/>
<ellipse cx="58.0487" cy="48.7705" rx="2.84553" ry="2.86885" fill="#9E9E9E"/>
<ellipse cx="67.1541" cy="48.7705" rx="2.84553" ry="2.86885" fill="#9E9E9E"/>
<ellipse cx="67.1541" cy="57.3769" rx="2.84553" ry="2.86885" fill="#9E9E9E"/>
<ellipse cx="2.84553" cy="57.9509" rx="2.84553" ry="2.86885" fill="#9E9E9E"/>
<ellipse cx="12.5203" cy="57.9509" rx="2.84553" ry="2.86885" fill="#9E9E9E"/>
<ellipse cx="21.6258" cy="57.9509" rx="2.84553" ry="2.86885" fill="#9E9E9E"/>
<ellipse cx="30.7318" cy="57.9509" rx="2.84553" ry="2.86885" fill="#9E9E9E"/>
<ellipse cx="39.8372" cy="57.9509" rx="2.84553" ry="2.86885" fill="#9E9E9E"/>
<ellipse cx="48.9432" cy="57.3769" rx="2.84553" ry="2.86885" fill="#9E9E9E"/>
<ellipse cx="58.0487" cy="57.3769" rx="2.84553" ry="2.86885" fill="#9E9E9E"/>
<ellipse cx="2.84553" cy="67.1311" rx="2.84553" ry="2.86885" fill="#9E9E9E"/>
<ellipse cx="12.5203" cy="67.1311" rx="2.84553" ry="2.86885" fill="#9E9E9E"/>
<ellipse cx="22.1951" cy="67.1311" rx="2.84553" ry="2.86885" fill="#9E9E9E"/>
<ellipse cx="30.7318" cy="67.1311" rx="2.84553" ry="2.86885" fill="#9E9E9E"/>
<ellipse cx="39.8372" cy="67.1311" rx="2.84553" ry="2.86885" fill="#9E9E9E"/>
<ellipse cx="48.9432" cy="67.1311" rx="2.84553" ry="2.86885" fill="#9E9E9E"/>
<ellipse cx="58.0487" cy="66.5576" rx="2.84553" ry="2.86885" fill="#9E9E9E"/>
<ellipse cx="67.1541" cy="66.5576" rx="2.84553" ry="2.86885" fill="#9E9E9E"/>
</svg>
