<svg width="22" height="29" viewBox="0 0 22 29" fill="none" xmlns="http://www.w3.org/2000/svg">
<path d="M10.6719 0.554688C4.92969 0.71875 0.5 5.69531 0.5 11.4922V25.9297C0.5 26.6953 1.42969 27.0781 1.97656 26.5312L3.34375 25.4922C3.67188 25.2188 4.21875 25.2734 4.49219 25.6562L6.84375 28.2812C7.22656 28.6094 7.77344 28.6094 8.10156 28.2812L10.2891 25.7656C10.6719 25.3828 11.2734 25.3828 11.6016 25.7656L13.8438 28.2812C14.1719 28.6094 14.7734 28.6094 15.1016 28.2812L17.4531 25.6562C17.7266 25.2734 18.2734 25.2188 18.6016 25.4922L19.9688 26.5312C20.5156 27.0781 21.4453 26.6953 21.4453 25.9297V11C21.5 5.09375 16.5781 0.335938 10.6719 0.554688ZM7.5 12.75C6.51562 12.75 5.75 11.9844 5.75 11C5.75 10.0703 6.57031 9.25 7.5 9.25C8.375 9.25 9.25 10.0703 9.25 11C9.25 11.9844 8.42969 12.75 7.5 12.75ZM14.5 12.75C13.5156 12.75 12.75 11.9844 12.75 11C12.75 10.0703 13.5156 9.25 14.5 9.25C15.4297 9.25 16.25 10.0703 16.25 11C16.25 11.9844 15.4297 12.75 14.5 12.75Z" fill="white"/>
</svg>
