<svg width="160" height="160" viewBox="0 0 160 160" fill="none" xmlns="http://www.w3.org/2000/svg">
<ellipse cx="153.496" cy="6.55738" rx="6.50407" ry="6.55738" fill="#3998F0"/>
<ellipse cx="6.50407" cy="6.55738" rx="6.50407" ry="6.55738" fill="#3998F0"/>
<ellipse cx="28.6183" cy="6.55738" rx="6.50407" ry="6.55738" fill="#3998F0"/>
<ellipse cx="49.4308" cy="6.55738" rx="6.50407" ry="6.55738" fill="#3998F0"/>
<ellipse cx="70.2438" cy="6.55738" rx="6.50407" ry="6.55738" fill="#3998F0"/>
<ellipse cx="91.0568" cy="6.55738" rx="6.50407" ry="6.55738" fill="#3998F0"/>
<ellipse cx="111.87" cy="6.55738" rx="6.50407" ry="6.55738" fill="#3998F0"/>
<ellipse cx="132.683" cy="6.55738" rx="6.50407" ry="6.55738" fill="#3998F0"/>
<ellipse cx="6.50407" cy="27.5408" rx="6.50407" ry="6.55738" fill="#3998F0"/>
<ellipse cx="28.6183" cy="27.5408" rx="6.50407" ry="6.55738" fill="#3998F0"/>
<ellipse cx="49.4308" cy="27.5408" rx="6.50407" ry="6.55738" fill="#3998F0"/>
<ellipse cx="70.2438" cy="27.5408" rx="6.50407" ry="6.55738" fill="#3998F0"/>
<ellipse cx="91.0568" cy="27.5408" rx="6.50407" ry="6.55738" fill="#3998F0"/>
<ellipse cx="111.87" cy="27.5408" rx="6.50407" ry="6.55738" fill="#3998F0"/>
<ellipse cx="132.683" cy="27.5408" rx="6.50407" ry="6.55738" fill="#3998F0"/>
<ellipse cx="153.496" cy="27.5408" rx="6.50407" ry="6.55738" fill="#3998F0"/>
<ellipse cx="153.496" cy="47.2131" rx="6.50407" ry="6.55738" fill="#3998F0"/>
<ellipse cx="6.50407" cy="48.5247" rx="6.50407" ry="6.55738" fill="#3998F0"/>
<ellipse cx="28.6183" cy="48.5247" rx="6.50407" ry="6.55738" fill="#3998F0"/>
<ellipse cx="49.4308" cy="48.5247" rx="6.50407" ry="6.55738" fill="#3998F0"/>
<ellipse cx="70.2438" cy="48.5247" rx="6.50407" ry="6.55738" fill="#3998F0"/>
<ellipse cx="91.0568" cy="48.5247" rx="6.50407" ry="6.55738" fill="#3998F0"/>
<ellipse cx="111.87" cy="47.2131" rx="6.50407" ry="6.55738" fill="#3998F0"/>
<ellipse cx="132.683" cy="47.2131" rx="6.50407" ry="6.55738" fill="#3998F0"/>
<ellipse cx="6.50407" cy="69.5083" rx="6.50407" ry="6.55738" fill="#3998F0"/>
<ellipse cx="28.6183" cy="69.5083" rx="6.50407" ry="6.55738" fill="#3998F0"/>
<ellipse cx="50.7316" cy="69.5083" rx="6.50407" ry="6.55738" fill="#3998F0"/>
<ellipse cx="70.2438" cy="69.5083" rx="6.50407" ry="6.55738" fill="#3998F0"/>
<ellipse cx="91.0568" cy="69.5083" rx="6.50407" ry="6.55738" fill="#3998F0"/>
<ellipse cx="111.87" cy="69.5083" rx="6.50407" ry="6.55738" fill="#3998F0"/>
<ellipse cx="132.683" cy="68.1968" rx="6.50407" ry="6.55738" fill="#3998F0"/>
<ellipse cx="153.496" cy="68.1968" rx="6.50407" ry="6.55738" fill="#3998F0"/>
<ellipse cx="153.496" cy="90.4917" rx="6.50407" ry="6.55738" fill="#3998F0"/>
<ellipse cx="6.50407" cy="90.4917" rx="6.50407" ry="6.55738" fill="#3998F0"/>
<ellipse cx="28.6183" cy="90.4917" rx="6.50407" ry="6.55738" fill="#3998F0"/>
<ellipse cx="49.4308" cy="90.4917" rx="6.50407" ry="6.55738" fill="#3998F0"/>
<ellipse cx="70.2438" cy="90.4917" rx="6.50407" ry="6.55738" fill="#3998F0"/>
<ellipse cx="91.0568" cy="90.4917" rx="6.50407" ry="6.55738" fill="#3998F0"/>
<ellipse cx="111.87" cy="90.4917" rx="6.50407" ry="6.55738" fill="#3998F0"/>
<ellipse cx="132.683" cy="90.4917" rx="6.50407" ry="6.55738" fill="#3998F0"/>
<ellipse cx="6.50407" cy="111.476" rx="6.50407" ry="6.55738" fill="#3998F0"/>
<ellipse cx="28.6183" cy="111.476" rx="6.50407" ry="6.55738" fill="#3998F0"/>
<ellipse cx="49.4308" cy="111.476" rx="6.50407" ry="6.55738" fill="#3998F0"/>
<ellipse cx="70.2438" cy="111.476" rx="6.50407" ry="6.55738" fill="#3998F0"/>
<ellipse cx="91.0568" cy="111.476" rx="6.50407" ry="6.55738" fill="#3998F0"/>
<ellipse cx="111.87" cy="111.476" rx="6.50407" ry="6.55738" fill="#3998F0"/>
<ellipse cx="132.683" cy="111.476" rx="6.50407" ry="6.55738" fill="#3998F0"/>
<ellipse cx="153.496" cy="111.476" rx="6.50407" ry="6.55738" fill="#3998F0"/>
<ellipse cx="153.496" cy="131.147" rx="6.50407" ry="6.55738" fill="#3998F0"/>
<ellipse cx="6.50407" cy="132.459" rx="6.50407" ry="6.55738" fill="#3998F0"/>
<ellipse cx="28.6183" cy="132.459" rx="6.50407" ry="6.55738" fill="#3998F0"/>
<ellipse cx="49.4308" cy="132.459" rx="6.50407" ry="6.55738" fill="#3998F0"/>
<ellipse cx="70.2438" cy="132.459" rx="6.50407" ry="6.55738" fill="#3998F0"/>
<ellipse cx="91.0568" cy="132.459" rx="6.50407" ry="6.55738" fill="#3998F0"/>
<ellipse cx="111.87" cy="131.147" rx="6.50407" ry="6.55738" fill="#3998F0"/>
<ellipse cx="132.683" cy="131.147" rx="6.50407" ry="6.55738" fill="#3998F0"/>
<ellipse cx="6.50407" cy="153.443" rx="6.50407" ry="6.55738" fill="#3998F0"/>
<ellipse cx="28.6183" cy="153.443" rx="6.50407" ry="6.55738" fill="#3998F0"/>
<ellipse cx="50.7316" cy="153.443" rx="6.50407" ry="6.55738" fill="#3998F0"/>
<ellipse cx="70.2438" cy="153.443" rx="6.50407" ry="6.55738" fill="#3998F0"/>
<ellipse cx="91.0568" cy="153.443" rx="6.50407" ry="6.55738" fill="#3998F0"/>
<ellipse cx="111.87" cy="153.443" rx="6.50407" ry="6.55738" fill="#3998F0"/>
<ellipse cx="132.683" cy="152.131" rx="6.50407" ry="6.55738" fill="#3998F0"/>
<ellipse cx="153.496" cy="152.131" rx="6.50407" ry="6.55738" fill="#3998F0"/>
</svg>
