<svg xmlns="http://www.w3.org/2000/svg" xmlns:svgjs="http://svgjs.com/svgjs" xmlns:xlink="http://www.w3.org/1999/xlink" width="288" height="288"><rect width="288" height="288" fill="#3998f0" rx="0" ry="0"/><svg xmlns="http://www.w3.org/2000/svg" xmlns:svgjs="http://svgjs.com/svgjs" xmlns:xlink="http://www.w3.org/1999/xlink" width="288" height="288" viewBox="0 0 288 288"><circle cx="144" cy="144" r="144" fill="#fff" class="colorred svgShape" transform="matrix(.71 0 0 .71 41.76 41.76)"/><svg xmlns="http://www.w3.org/2000/svg" xmlns:xlink="http://www.w3.org/1999/xlink" width="288" height="288" data-version="6.3" viewBox="0 0 288 288"><svg xmlns="http://www.w3.org/2000/svg" width="288" height="288" class="page showed" data-custom-element="Page_cmp" data-height="1122.534" data-width="793.711" viewBox="0 0 793.711 1122.534"><g class="content color000 svgShape"><g class="layers color000 svgShape"><g class="layer color000 svgShape" data-color="#fb006b" data-name="Layer 1"><path fill="#fff" d="M 780 390 C 780 605.3909912109375 605.3911743164062 780 390 780 C 174.60894775390625 780 -0.00000200772797143145 605.3909912109375 -0.0000020077288809261518 390 C -0.0000020077288809261518 174.60891723632812 174.60894775390625 -0.000020906647478113882 390 -0.000020906647478113882 C 605.3911743164062 -0.000020906647478113882 780 174.60891723632812 780 390 Z " class="colorFFF svgShape colorfff" transform="translate(6.855 171.267)"/><path fill="#dfdfdf" d="M 780 390 C 780 389.54901123046875 779.9848022460938 389.10113525390625 779.9832763671875 388.65020751953125 L 537.5830688476562 146.25 L 509.01861572265625 184.33590698242188 L 470.9326171875 146.25 L 442.3681640625 184.33590698242188 L 404.2823181152344 146.25 L 375.71783447265625 184.33590698242188 L 337.6318664550781 146.25 L 309.0673828125 184.33590698242188 L 270.9814758300781 146.25 L 242.41702270507812 194.80953979492188 L 194.80958557128906 242.41697692871094 L 146.25001525878906 270.9814147949219 L 184.33595275878906 309.0674133300781 L 146.25001525878906 337.6317443847656 L 184.33595275878906 375.7177429199219 L 146.25001525878906 404.2822265625 L 184.33595275878906 442.3681335449219 L 146.25001525878906 470.9326477050781 L 184.33595275878906 509.01849365234375 L 146.25001525878906 537.5830078125 L 388.6502685546875 779.9832153320312 C 389.1011657714844 779.9846801757812 389.5490417480469 780 390 780 C 605.3912963867188 780 780 605.3912963867188 780 390 Z " class="colorDFDFDF svgShape colordfdfdf" transform="translate(6.855 171.267)"/><rect width="28.564" height="62.842" x="375.718" y="146.25" fill="#aca8a1" class="colorACA8A1 svgShape coloraca8a1" transform="translate(6.855 171.267)"/><rect width="14.282" height="62.842" x="390" y="146.25" fill="#888785" class="color888785 svgShape" transform="translate(6.855 171.267)"/><rect width="28.564" height="62.842" x="509.019" y="146.25" fill="#858381" class="color858381 svgShape" transform="translate(6.855 171.267)"/><rect width="28.564" height="62.842" x="442.368" y="146.25" fill="#858381" class="color858381 svgShape" transform="translate(6.855 171.267)"/><rect width="62.842" height="28.564" x="570.908" y="375.718" fill="#858381" class="color858381 svgShape" transform="translate(6.855 171.267)"/><rect width="62.842" height="28.564" x="570.908" y="442.368" fill="#858381" class="color858381 svgShape" transform="translate(6.855 171.267)"/><rect width="62.842" height="28.564" x="570.908" y="509.019" fill="#858381" class="color858381 svgShape" transform="translate(6.855 171.267)"/><rect width="62.842" height="28.564" x="570.908" y="242.417" fill="#858381" class="color858381 svgShape" transform="translate(6.855 171.267)"/><rect width="62.842" height="28.564" x="570.908" y="309.067" fill="#858381" class="color858381 svgShape" transform="translate(6.855 171.267)"/><rect width="28.564" height="62.842" x="509.019" y="570.908" fill="#858381" class="color858381 svgShape" transform="translate(6.855 171.267)"/><rect width="28.564" height="62.842" x="442.368" y="570.908" fill="#858381" class="color858381 svgShape" transform="translate(6.855 171.267)"/><rect width="28.564" height="62.842" x="309.067" y="146.25" fill="#aca8a1" class="colorACA8A1 svgShape coloraca8a1" transform="translate(6.855 171.267)"/><rect width="28.564" height="62.842" x="242.417" y="146.25" fill="#aca8a1" class="colorACA8A1 svgShape coloraca8a1" transform="translate(6.855 171.267)"/><rect width="62.842" height="28.564" x="146.25" y="375.718" fill="#aca8a1" class="colorACA8A1 svgShape coloraca8a1" transform="translate(6.855 171.267)"/><rect width="62.842" height="28.564" x="146.25" y="442.368" fill="#aca8a1" class="colorACA8A1 svgShape coloraca8a1" transform="translate(6.855 171.267)"/><rect width="62.842" height="28.564" x="146.25" y="509.019" fill="#aca8a1" class="colorACA8A1 svgShape coloraca8a1" transform="translate(6.855 171.267)"/><rect width="62.842" height="28.564" x="146.25" y="242.417" fill="#aca8a1" class="colorACA8A1 svgShape coloraca8a1" transform="translate(6.855 171.267)"/><rect width="62.842" height="28.564" x="146.25" y="309.067" fill="#aca8a1" class="colorACA8A1 svgShape coloraca8a1" transform="translate(6.855 171.267)"/><rect width="28.564" height="62.842" x="309.067" y="570.908" fill="#aca8a1" class="colorACA8A1 svgShape coloraca8a1" transform="translate(6.855 171.267)"/><rect width="28.564" height="62.842" x="242.417" y="570.908" fill="#aca8a1" class="colorACA8A1 svgShape coloraca8a1" transform="translate(6.855 171.267)"/><path fill="#5f5f5f" d="M 585.1905517578125 585.1903686523438 L 404.2822570800781 585.1903686523438 L 404.2822570800781 570.9082641601562 C 404.2822570800781 563.031982421875 397.8746643066406 556.6259765625 390 556.6259765625 C 382.1253967285156 556.6259765625 375.71783447265625 563.031982421875 375.71783447265625 570.9082641601562 L 375.71783447265625 585.1903686523438 L 194.80958557128906 585.1903686523438 L 194.80958557128906 194.8095703125 L 585.1905517578125 194.8095703125 L 585.1905517578125 585.1903686523438 Z " class="color5F5F5F svgShape color5f5f5f" transform="translate(6.855 171.267)"/><path fill="#525252" d="M 390 194.8095703125 L 390 556.6259765625 C 397.8746643066406 556.6259765625 404.2822570800781 563.031982421875 404.2822570800781 570.9082641601562 L 404.2822570800781 585.1903686523438 L 585.1905517578125 585.1903686523438 L 585.1905517578125 194.8095703125 L 390 194.8095703125 Z " class="color525252 svgShape" transform="translate(6.855 171.267)"/><rect width="42.847" height="28.564" x="485.215" y="375.718" fill="#fff" class="colorFFF svgShape colorfff" transform="translate(6.855 171.267)"/><rect width="42.847" height="28.564" x="251.938" y="375.718" fill="#fff" class="colorFFF svgShape colorfff" transform="translate(6.855 171.267)"/><rect width="28.564" height="42.847" x="375.718" y="251.938" fill="#fff" class="colorFFF svgShape colorfff" transform="translate(6.855 171.267)"/><rect width="14.282" height="42.847" x="390" y="251.938" fill="#fff" class="colorFFF svgShape colorfff" transform="translate(6.855 171.267)"/><path fill="#fff" d="M 499.49713134765625 499.49700927734375 L 280.5029602050781 499.49700927734375 L 280.5029602050781 280.5029602050781 L 499.49713134765625 280.5029602050781 L 499.49713134765625 499.49700927734375 Z " class="colorFFF svgShape colorfff" transform="translate(6.855 171.267)"/><path fill="#fff" d="M 499.49713134765625 499.49700927734375 L 390 499.49700927734375 L 390 280.5029602050781 L 499.49713134765625 280.5029602050781 L 499.49713134765625 499.49700927734375 Z " class="colorFFF svgShape colorfff" transform="translate(6.855 171.267)"/><path d="M 747.8396606445312 492.6073913574219 C 737.727294921875 492.6073913574219 729.5391845703125 486.2111511230469 729.5391845703125 478.3117370605469 L 729.5391845703125 458.3064880371094 C 729.5391845703125 450.41424560546875 737.727294921875 444.0107727050781 747.8396606445312 444.0107727050781 C 757.942626953125 444.0107727050781 766.1401977539062 450.41424560546875 766.1401977539062 458.3064880371094 L 766.1401977539062 478.3117370605469 C 766.1401977539062 486.2111511230469 757.942626953125 492.6073913574219 747.8396606445312 492.6073913574219 Z M 747.8396606445312 492.6073913574219 " class="color000 svgShape" transform="translate(-289.351 90.951)"/><path fill="#767e86" d="M 386.3807373046875 368.5593566894531 C 374.3416748046875 368.5593566894531 363.0278625488281 364.0289001464844 355.3456726074219 356.1429748535156 C 351.10662841796875 351.787109375 351.6019592285156 345.1715087890625 356.45404052734375 341.3713073730469 C 361.3003845214844 337.56597900390625 368.66400146484375 338.0106201171875 372.90899658203125 342.361083984375 C 376.1632995605469 345.7059020996094 381.07452392578125 347.6219177246094 386.3807373046875 347.6219177246094 C 391.6868896484375 347.6219177246094 396.5979309082031 345.7059020996094 399.852294921875 342.361083984375 C 404.09716796875 338.0106201171875 411.4609069824219 337.56597900390625 416.3071594238281 341.3713073730469 C 421.1594543457031 345.1715087890625 421.6546325683594 351.787109375 417.41571044921875 356.1429748535156 C 409.7335205078125 364.0289001464844 398.4197692871094 368.5593566894531 386.3807373046875 368.5593566894531 Z M 386.3807373046875 368.5593566894531 " class="color767E86 svgShape color767e86" transform="translate(10.286 252.737)"/><path fill="#fff" d="M 355.48736572265625 264.5832214355469 C 350.6802978515625 264.5831604003906 346.7880859375 261.1477355957031 346.7880554199219 256.90484619140625 L 346.7880554199219 246.15994262695312 C 346.7880554199219 241.92086791992188 350.6802673339844 238.48159790039062 355.48736572265625 238.48165893554688 C 360.2898864746094 238.48165893554688 364.1864929199219 241.92086791992188 364.1864013671875 246.16001892089844 L 364.1864929199219 256.90484619140625 C 364.1864929199219 261.1477355957031 360.2898864746094 264.5831298828125 355.48736572265625 264.5832214355469 Z M 355.48736572265625 264.5832214355469 " class="colorFFF svgShape colorfff" transform="rotate(.493 -34242.997 11162.335)"/><path fill="#1a1a1a" d="M 747.8397216796875 492.6075134277344 C 737.7271118164062 492.6075134277344 729.5390625 486.2112121582031 729.5390625 478.31170654296875 L 729.5390625 458.306640625 C 729.5390625 450.4141540527344 737.7271118164062 444.0107421875 747.8397216796875 444.0107421875 C 757.9429321289062 444.0107421875 766.1401977539062 450.4141540527344 766.1401977539062 458.306640625 L 766.1401977539062 478.31170654296875 C 766.1401977539062 486.2112121582031 757.9429321289062 492.6075134277344 747.8397216796875 492.6075134277344 Z M 747.8397216796875 492.6075134277344 " class="color1A1A1A svgShape color1a1a1a" transform="translate(-411.988 92.433)"/><path fill="#fff" d="M 355.48724365234375 264.5831298828125 C 350.6802978515625 264.5831298828125 346.7880859375 261.14764404296875 346.7880859375 256.9048156738281 L 346.7881164550781 246.159912109375 C 346.7880859375 241.9208221435547 350.6802978515625 238.4815216064453 355.4872741699219 238.48150634765625 C 360.2896423339844 238.48150634765625 364.18634033203125 241.92079162597656 364.18634033203125 246.15988159179688 L 364.1864318847656 256.9048156738281 C 364.18634033203125 261.1476745605469 360.2896423339844 264.5830993652344 355.48724365234375 264.5831298828125 Z M 355.48724365234375 264.5831298828125 " class="colorFFF svgShape colorfff" transform="rotate(.493 -34476.33 -3046.824)"/></g></g></g><jvs:data xmlns="http://www.w3.org/1999/xhtml" xmlns:jvs="http://www.janvas.com/jvs"><jvs:data>{&quot;snapDistance&quot;:10,&quot;snapAngle&quot;:45,&quot;fixedDecimals&quot;:2,&quot;gridStep&quot;:1,&quot;moveStep&quot;:1,&quot;rotationStep&quot;:90,&quot;snapToGrid&quot;:false,&quot;snapToBBoxProjections&quot;:false,&quot;snapToPageBBox&quot;:true,&quot;snapToPoints&quot;:true,&quot;snapToSegments&quot;:true,&quot;snapToGuides&quot;:true,&quot;snapToSmartGuides&quot;:true,&quot;snapToSmartPoints&quot;:true,&quot;snapToLockedElements&quot;:true,&quot;pageMargin&quot;:0,&quot;elementsMargin&quot;:0,&quot;zoomInOutUsingMouseWheel&quot;:true,&quot;gridVisibilityState&quot;:false,&quot;pageOriginVisibilityState&quot;:true,&quot;guideVisibilityState&quot;:true,&quot;guideLockState&quot;:true,&quot;scaleText&quot;:true,&quot;scaleStrokeAndEffects&quot;:true,&quot;drawingScale&quot;:1,&quot;unitKey&quot;:&quot;PIXEL&quot;,&quot;unitValue&quot;:1,&quot;origin&quot;:{&quot;x&quot;:0,&quot;y&quot;:0},&quot;selectGroupChildren&quot;:false,&quot;pageOriginVisibility&quot;:false}</jvs:data></jvs:data></svg></svg></svg></svg>