<svg width="91" height="129" viewBox="0 0 91 129" fill="none" xmlns="http://www.w3.org/2000/svg">
<g clip-path="url(#clip0_171_2193)">
<path d="M90.2139 64.4999C90.2139 89.2523 70.1948 109.318 45.4999 109.318C20.805 109.318 0.785889 89.2523 0.785889 64.4999C0.785889 39.7475 20.805 19.6816 45.4999 19.6816C70.1948 19.6816 90.2139 39.7475 90.2139 64.4999Z" fill="white"/>
<path d="M90.214 64.4999C90.214 64.4481 90.2123 64.3966 90.2121 64.3448L62.4206 36.4885L59.1456 40.8653L54.779 36.4885L51.5041 40.8653L47.1375 36.4885L43.8625 40.8653L39.4959 36.4885L36.2209 40.8653L31.8543 36.4885L28.5794 42.0689L23.1211 47.5399L17.5537 50.8225L21.9203 55.1993L17.5537 58.4818L21.9203 62.8586L17.5537 66.1412L21.9203 70.518L17.5537 73.8006L21.9203 78.1774L17.5537 81.46L45.3452 109.316C45.3969 109.316 45.4483 109.318 45.5 109.318C70.1949 109.318 90.214 89.2524 90.214 64.4999Z" fill="#DFDFDF"/>
<path d="M47.1375 36.4885H43.8625V43.7102H47.1375V36.4885Z" fill="#ACA8A1"/>
<path d="M47.1375 36.4885H45.5V43.7102H47.1375V36.4885Z" fill="#888785"/>
<path d="M62.4205 36.4885H59.1455V43.7102H62.4205V36.4885Z" fill="#858381"/>
<path d="M54.7789 36.4885H51.5039V43.7102H54.7789V36.4885Z" fill="#858381"/>
<path d="M73.4461 62.8586H66.2412V66.1412H73.4461V62.8586Z" fill="#858381"/>
<path d="M73.4461 70.5181H66.2412V73.8007H73.4461V70.5181Z" fill="#858381"/>
<path d="M73.4461 78.1772H66.2412V81.4598H73.4461V78.1772Z" fill="#858381"/>
<path d="M73.4461 47.5398H66.2412V50.8224H73.4461V47.5398Z" fill="#858381"/>
<path d="M73.4461 55.1992H66.2412V58.4818H73.4461V55.1992Z" fill="#858381"/>
<path d="M62.4205 85.2896H59.1455V92.5112H62.4205V85.2896Z" fill="#858381"/>
<path d="M54.7789 85.2896H51.5039V92.5112H54.7789V85.2896Z" fill="#858381"/>
<path d="M39.4959 36.4885H36.2209V43.7102H39.4959V36.4885Z" fill="#ACA8A1"/>
<path d="M31.8543 36.4885H28.5793V43.7102H31.8543V36.4885Z" fill="#ACA8A1"/>
<path d="M24.7586 62.8586H17.5537V66.1412H24.7586V62.8586Z" fill="#ACA8A1"/>
<path d="M24.7586 70.5181H17.5537V73.8007H24.7586V70.5181Z" fill="#ACA8A1"/>
<path d="M24.7586 78.1772H17.5537V81.4598H24.7586V78.1772Z" fill="#ACA8A1"/>
<path d="M24.7586 47.5398H17.5537V50.8224H24.7586V47.5398Z" fill="#ACA8A1"/>
<path d="M24.7586 55.1992H17.5537V58.4818H24.7586V55.1992Z" fill="#ACA8A1"/>
<path d="M39.4959 85.2896H36.2209V92.5112H39.4959V85.2896Z" fill="#ACA8A1"/>
<path d="M31.8543 85.2896H28.5793V92.5112H31.8543V85.2896Z" fill="#ACA8A1"/>
<path d="M67.8788 86.9309H47.1374V85.2896C47.1374 84.3845 46.4028 83.6483 45.4999 83.6483C44.5971 83.6483 43.8625 84.3845 43.8625 85.2896V86.9309H23.1211V42.0688H67.8788V86.9309Z" fill="#5F5F5F"/>
<path d="M45.5 42.0688V83.6483C46.4028 83.6483 47.1375 84.3845 47.1375 85.2896V86.9309H67.8789V42.0688H45.5Z" fill="#525252"/>
<path d="M61.3289 62.8586H56.4165V66.1412H61.3289V62.8586Z" fill="white"/>
<path d="M34.5833 62.8586H29.6709V66.1412H34.5833V62.8586Z" fill="white"/>
<path d="M47.1375 48.634H43.8625V53.5579H47.1375V48.634Z" fill="white"/>
<path d="M47.1375 48.634H45.5V53.5579H47.1375V48.634Z" fill="white"/>
<path d="M58.054 77.0832H32.946V51.9167H58.054V77.0832Z" fill="white"/>
<path d="M58.054 77.0832H45.5V51.9167H58.054V77.0832Z" fill="white"/>
<path d="M52.5662 67.0617C51.4068 67.0617 50.468 66.3267 50.468 65.4189V63.1199C50.468 62.2129 51.4068 61.4771 52.5662 61.4771C53.7245 61.4771 54.6644 62.2129 54.6644 63.1199V65.4189C54.6644 66.3267 53.7245 67.0617 52.5662 67.0617Z" fill="black"/>
<path d="M45.4782 71.3983C44.0979 71.3983 42.8007 70.8777 41.92 69.9714C41.434 69.4708 41.4907 68.7106 42.047 68.2739C42.6027 67.8366 43.4469 67.8877 43.9336 68.3876C44.3067 68.772 44.8698 68.9922 45.4782 68.9922C46.0865 68.9922 46.6496 68.772 47.0227 68.3876C47.5094 67.8877 48.3537 67.8366 48.9093 68.2739C49.4656 68.7106 49.5224 69.4708 49.0364 69.9714C48.1556 70.8777 46.8585 71.3983 45.4782 71.3983Z" fill="#767E86"/>
<path d="M51.3934 64.7659C50.8423 64.7611 50.3995 64.3625 50.4036 63.8749L50.4143 62.6402C50.4185 62.153 50.8681 61.7617 51.4192 61.7664C51.9698 61.7712 52.4132 62.1703 52.4089 62.6574L52.3983 63.8922C52.3941 64.3797 51.944 64.7706 51.3934 64.7659Z" fill="white"/>
<path d="M38.5057 67.2319C37.3462 67.2319 36.4075 66.4968 36.4075 65.589V63.2901C36.4075 62.3831 37.3462 61.6472 38.5057 61.6472C39.664 61.6472 40.6038 62.3831 40.6038 63.2901V65.589C40.6038 66.4968 39.664 67.2319 38.5057 67.2319Z" fill="#1A1A1A"/>
<path d="M37.3326 64.9368C36.7815 64.932 36.3387 64.5334 36.3429 64.0458L36.3535 62.8111C36.3577 62.3239 36.8073 61.9326 37.3584 61.9373C37.909 61.9421 38.3523 62.3412 38.3481 62.8283L38.3375 64.0631C38.3333 64.5506 37.8832 64.9415 37.3326 64.9368Z" fill="white"/>
</g>
<path d="M10.5 32C40.5 1 78 23 81.5 34M10.5 96.5C40.5 127.5 78 105.5 81.5 94.5" stroke="#3998F0" stroke-width="3"/>
<defs>
<clipPath id="clip0_171_2193">
<rect width="91" height="129" fill="white"/>
</clipPath>
</defs>
</svg>
