<svg xmlns="http://www.w3.org/2000/svg" xmlns:xlink="http://www.w3.org/1999/xlink" width="793.7107869076" height="1122.533827198" data-version="6.3"><defs>
            
        </defs><svg xmlns="http://www.w3.org/2000/svg" xmlns:xlink="http://www.w3.org/1999/xlink" data-custom-element="Page_cmp" class="page showed" x="0px" y="0" width="793.7107869076" height="1122.533827198" data-width="793.7107869076" data-height="1122.533827198" viewBox="0 0 793.7107869076 1122.533827198">
        
        
        
        <g class="content">
            <g class="background-layers">
                
            </g>
            <g class="layers">
                <g transform="matrix(1,0,0,1,0,0)" data-name="Layer 1" data-color="#fb006b" class="layer" active=""><path fill="#FFFFFF" d="M 780 390 C 780 605.3909912109375 605.3911743164062 780 390 780 C 174.60894775390625 780 -0.00000200772797143145 605.3909912109375 -0.0000020077288809261518 390 C -0.0000020077288809261518 174.60891723632812 174.60894775390625 -0.000020906647478113882 390 -0.000020906647478113882 C 605.3911743164062 -0.000020906647478113882 780 174.60891723632812 780 390 Z " stroke="none" stroke-width="1.5323093145262527" stroke-linecap="butt" stroke-linejoin="miter" transform="matrix(1 0 0 1 6.85542 171.267)" class="" fill-opacity="1"/><path style="" d="M 780 390 C 780 389.54901123046875 779.9848022460938 389.10113525390625 779.9832763671875 388.65020751953125 L 537.5830688476562 146.25 L 509.01861572265625 184.33590698242188 L 470.9326171875 146.25 L 442.3681640625 184.33590698242188 L 404.2823181152344 146.25 L 375.71783447265625 184.33590698242188 L 337.6318664550781 146.25 L 309.0673828125 184.33590698242188 L 270.9814758300781 146.25 L 242.41702270507812 194.80953979492188 L 194.80958557128906 242.41697692871094 L 146.25001525878906 270.9814147949219 L 184.33595275878906 309.0674133300781 L 146.25001525878906 337.6317443847656 L 184.33595275878906 375.7177429199219 L 146.25001525878906 404.2822265625 L 184.33595275878906 442.3681335449219 L 146.25001525878906 470.9326477050781 L 184.33595275878906 509.01849365234375 L 146.25001525878906 537.5830078125 L 388.6502685546875 779.9832153320312 C 389.1011657714844 779.9846801757812 389.5490417480469 780 390 780 C 605.3912963867188 780 780 605.3912963867188 780 390 Z " fill="#DFDFDF" stroke="none" stroke-width="1.5323093145262527" stroke-linecap="butt" stroke-linejoin="miter" transform="matrix(1 0 0 1 6.85542 171.267)" class="" fill-opacity="1"/><rect x="375.7178080947703" y="146.24999622296255" style="" width="28.56445575986597" height="62.84179525205424" fill="#ACA8A1" stroke="none" stroke-width="1.5323093145262527" stroke-linejoin="miter" transform="matrix(1 0 0 1 6.85542 171.267)" class="" fill-opacity="1"/><rect x="390.0000359747033" y="146.24999622296255" style="" width="14.282227879932986" height="62.84179525205424" fill="#888785" stroke="none" stroke-width="1.5323093145262527" stroke-linejoin="miter" transform="matrix(1 0 0 1 6.85542 171.267)" class="" fill-opacity="1"/><rect x="509.0186016408114" y="146.24999622296255" style="" width="28.56445575986597" height="62.84179525205424" fill="#858381" stroke="none" stroke-width="1.5323093145262527" stroke-linejoin="miter" transform="matrix(1 0 0 1 6.85542 171.267)" class="" fill-opacity="1"/><rect x="442.368204867791" y="146.24999622296255" style="" width="28.56445575986597" height="62.84179525205424" fill="#858381" stroke="none" stroke-width="1.5323093145262527" stroke-linejoin="miter" transform="matrix(1 0 0 1 6.85542 171.267)" class="" fill-opacity="1"/><rect x="570.9082557871876" y="375.71776373425155" style="" width="62.84180267170513" height="28.56445238729738" fill="#858381" stroke="none" stroke-width="1.5323093145262527" stroke-linejoin="miter" transform="matrix(1 0 0 1 6.85542 171.267)" class="" fill-opacity="1"/><rect x="570.9082557871876" y="442.36815263794523" style="" width="62.84180267170513" height="28.56445238729738" fill="#858381" stroke="none" stroke-width="1.5323093145262527" stroke-linejoin="miter" transform="matrix(1 0 0 1 6.85542 171.267)" class="" fill-opacity="1"/><rect x="570.9082557871876" y="509.01854154163925" style="" width="62.84180267170513" height="28.56445238729738" fill="#858381" stroke="none" stroke-width="1.5323093145262527" stroke-linejoin="miter" transform="matrix(1 0 0 1 6.85542 171.267)" class="" fill-opacity="1"/><rect x="570.9082557871876" y="242.4169859268637" style="" width="62.84180267170513" height="28.56445238729738" fill="#858381" stroke="none" stroke-width="1.5323093145262527" stroke-linejoin="miter" transform="matrix(1 0 0 1 6.85542 171.267)" class="" fill-opacity="1"/><rect x="570.9082557871876" y="309.06737483055764" style="" width="62.84180267170513" height="28.56445238729738" fill="#858381" stroke="none" stroke-width="1.5323093145262527" stroke-linejoin="miter" transform="matrix(1 0 0 1 6.85542 171.267)" class="" fill-opacity="1"/><rect x="509.0186016408114" y="570.9081883807836" style="" width="28.56445575986597" height="62.84179525205424" fill="#858381" stroke="none" stroke-width="1.5323093145262527" stroke-linejoin="miter" transform="matrix(1 0 0 1 6.85542 171.267)" class="" fill-opacity="1"/><rect x="442.368204867791" y="570.9081883807836" style="" width="28.56445575986597" height="62.84179525205424" fill="#858381" stroke="none" stroke-width="1.5323093145262527" stroke-linejoin="miter" transform="matrix(1 0 0 1 6.85542 171.267)" class="" fill-opacity="1"/><rect x="309.06741132174983" y="146.24999622296255" style="" width="28.56445575986597" height="62.84179525205424" fill="#ACA8A1" stroke="none" stroke-width="1.5323093145262527" stroke-linejoin="miter" transform="matrix(1 0 0 1 6.85542 171.267)" class="" fill-opacity="1"/><rect x="242.41701454872916" y="146.24999622296255" style="" width="28.56445575986597" height="62.84179525205424" fill="#ACA8A1" stroke="none" stroke-width="1.5323093145262527" stroke-linejoin="miter" transform="matrix(1 0 0 1 6.85542 171.267)" class="" fill-opacity="1"/><rect x="146.25001349051377" y="375.71776373425155" style="" width="62.84180267170513" height="28.56445238729738" fill="#ACA8A1" stroke="none" stroke-width="1.5323093145262527" stroke-linejoin="miter" transform="matrix(1 0 0 1 6.85542 171.267)" class="" fill-opacity="1"/><rect x="146.25001349051377" y="442.36815263794523" style="" width="62.84180267170513" height="28.56445238729738" fill="#ACA8A1" stroke="none" stroke-width="1.5323093145262527" stroke-linejoin="miter" transform="matrix(1 0 0 1 6.85542 171.267)" class="" fill-opacity="1"/><rect x="146.25001349051377" y="509.01854154163925" style="" width="62.84180267170513" height="28.56445238729738" fill="#ACA8A1" stroke="none" stroke-width="1.5323093145262527" stroke-linejoin="miter" transform="matrix(1 0 0 1 6.85542 171.267)" class="" fill-opacity="1"/><rect x="146.25001349051377" y="242.4169859268637" style="" width="62.84180267170513" height="28.56445238729738" fill="#ACA8A1" stroke="none" stroke-width="1.5323093145262527" stroke-linejoin="miter" transform="matrix(1 0 0 1 6.85542 171.267)" class="" fill-opacity="1"/><rect x="146.25001349051377" y="309.06737483055764" style="" width="62.84180267170513" height="28.56445238729738" fill="#ACA8A1" stroke="none" stroke-width="1.5323093145262527" stroke-linejoin="miter" transform="matrix(1 0 0 1 6.85542 171.267)" class="" fill-opacity="1"/><rect x="309.06741132174983" y="570.9081883807836" style="" width="28.56445575986597" height="62.84179525205424" fill="#ACA8A1" stroke="none" stroke-width="1.5323093145262527" stroke-linejoin="miter" transform="matrix(1 0 0 1 6.85542 171.267)" class="" fill-opacity="1"/><rect x="242.41701454872916" y="570.9081883807836" style="" width="28.56445575986597" height="62.84179525205424" fill="#ACA8A1" stroke="none" stroke-width="1.5323093145262527" stroke-linejoin="miter" transform="matrix(1 0 0 1 6.85542 171.267)" class="" fill-opacity="1"/><path style="" d="M 585.1905517578125 585.1903686523438 L 404.2822570800781 585.1903686523438 L 404.2822570800781 570.9082641601562 C 404.2822570800781 563.031982421875 397.8746643066406 556.6259765625 390 556.6259765625 C 382.1253967285156 556.6259765625 375.71783447265625 563.031982421875 375.71783447265625 570.9082641601562 L 375.71783447265625 585.1903686523438 L 194.80958557128906 585.1903686523438 L 194.80958557128906 194.8095703125 L 585.1905517578125 194.8095703125 L 585.1905517578125 585.1903686523438 Z " fill="#5F5F5F" stroke="none" stroke-width="1.5323093145262527" stroke-linecap="butt" stroke-linejoin="miter" transform="matrix(1 0 0 1 6.85542 171.267)" class="" fill-opacity="1"/><path style="" d="M 390 194.8095703125 L 390 556.6259765625 C 397.8746643066406 556.6259765625 404.2822570800781 563.031982421875 404.2822570800781 570.9082641601562 L 404.2822570800781 585.1903686523438 L 585.1905517578125 585.1903686523438 L 585.1905517578125 194.8095703125 L 390 194.8095703125 Z " fill="#525252" stroke="none" stroke-width="1.5323093145262527" stroke-linecap="butt" stroke-linejoin="miter" transform="matrix(1 0 0 1 6.85542 171.267)" class="" fill-opacity="1"/><rect x="485.2148885075899" y="375.71776373425155" style="" width="42.846683639798954" height="28.56445238729738" fill="#FFFFFF" stroke="none" stroke-width="1.5323093145262527" stroke-linejoin="miter" transform="matrix(1 0 0 1 6.85542 171.267)" class="" fill-opacity="1"/><rect x="251.93849980201782" y="375.71776373425155" style="" width="42.846683639798954" height="28.56445238729738" fill="#FFFFFF" stroke="none" stroke-width="1.5323093145262527" stroke-linejoin="miter" transform="matrix(1 0 0 1 6.85542 171.267)" class="" fill-opacity="1"/><rect x="375.7178080947703" y="251.93847005596285" style="" width="28.56445575986597" height="42.846678580946076" fill="#FFFFFF" stroke="none" stroke-width="1.5323093145262527" stroke-linejoin="miter" transform="matrix(1 0 0 1 6.85542 171.267)" class="" fill-opacity="1"/><rect x="390.0000359747033" y="251.93847005596285" style="" width="14.282227879932986" height="42.846678580946076" fill="#FFFFFF" stroke="none" stroke-width="1.5323093145262527" stroke-linejoin="miter" transform="matrix(1 0 0 1 6.85542 171.267)" class="" fill-opacity="1"/><path style="" d="M 499.49713134765625 499.49700927734375 L 280.5029602050781 499.49700927734375 L 280.5029602050781 280.5029602050781 L 499.49713134765625 280.5029602050781 L 499.49713134765625 499.49700927734375 Z " fill="#FFFFFF" stroke="none" stroke-width="1.5323093145262527" stroke-linecap="butt" stroke-linejoin="miter" transform="matrix(1 0 0 1 6.85542 171.267)" class="" fill-opacity="1"/><path style="" d="M 499.49713134765625 499.49700927734375 L 390 499.49700927734375 L 390 280.5029602050781 L 499.49713134765625 280.5029602050781 L 499.49713134765625 499.49700927734375 Z " fill="#FFFFFF" stroke="none" stroke-width="1.5323093145262527" stroke-linecap="butt" stroke-linejoin="miter" transform="matrix(1 0 0 1 6.85542 171.267)" class="" fill-opacity="1"/><path d="M 747.8396606445312 492.6073913574219 C 737.727294921875 492.6073913574219 729.5391845703125 486.2111511230469 729.5391845703125 478.3117370605469 L 729.5391845703125 458.3064880371094 C 729.5391845703125 450.41424560546875 737.727294921875 444.0107727050781 747.8396606445312 444.0107727050781 C 757.942626953125 444.0107727050781 766.1401977539062 450.41424560546875 766.1401977539062 458.3064880371094 L 766.1401977539062 478.3117370605469 C 766.1401977539062 486.2111511230469 757.942626953125 492.6073913574219 747.8396606445312 492.6073913574219 Z M 747.8396606445312 492.6073913574219 " fill="#000000" stroke="none" stroke-width="2.464041558846938" stroke-linecap="butt" stroke-linejoin="miter" transform="matrix(1 0 0 1 -289.351 90.9514)" class="" fill-opacity="1"/><path d="M 386.3807373046875 368.5593566894531 C 374.3416748046875 368.5593566894531 363.0278625488281 364.0289001464844 355.3456726074219 356.1429748535156 C 351.10662841796875 351.787109375 351.6019592285156 345.1715087890625 356.45404052734375 341.3713073730469 C 361.3003845214844 337.56597900390625 368.66400146484375 338.0106201171875 372.90899658203125 342.361083984375 C 376.1632995605469 345.7059020996094 381.07452392578125 347.6219177246094 386.3807373046875 347.6219177246094 C 391.6868896484375 347.6219177246094 396.5979309082031 345.7059020996094 399.852294921875 342.361083984375 C 404.09716796875 338.0106201171875 411.4609069824219 337.56597900390625 416.3071594238281 341.3713073730469 C 421.1594543457031 345.1715087890625 421.6546325683594 351.787109375 417.41571044921875 356.1429748535156 C 409.7335205078125 364.0289001464844 398.4197692871094 368.5593566894531 386.3807373046875 368.5593566894531 Z M 386.3807373046875 368.5593566894531 " fill="#767E86" stroke="none" stroke-width="1.4341793485982248" stroke-linecap="butt" stroke-linejoin="miter" transform="matrix(1 0 0 1 10.2859 252.737)" class="" fill-opacity="1"/><path d="M 355.48736572265625 264.5832214355469 C 350.6802978515625 264.5831604003906 346.7880859375 261.1477355957031 346.7880554199219 256.90484619140625 L 346.7880554199219 246.15994262695312 C 346.7880554199219 241.92086791992188 350.6802673339844 238.48159790039062 355.48736572265625 238.48165893554688 C 360.2898864746094 238.48165893554688 364.1864929199219 241.92086791992188 364.1864013671875 246.16001892089844 L 364.1864929199219 256.90484619140625 C 364.1864929199219 261.1477355957031 360.2898864746094 264.5831298828125 355.48736572265625 264.5832214355469 Z M 355.48736572265625 264.5832214355469 " fill="#FFFFFF" stroke="none" stroke-width="1.1380918247633895" stroke-linecap="butt" stroke-linejoin="miter" transform="matrix(0.999963 0.00863029 -0.00863029 0.999963 95.0672 295.94)" class="" fill-opacity="1"/><path d="M 747.8397216796875 492.6075134277344 C 737.7271118164062 492.6075134277344 729.5390625 486.2112121582031 729.5390625 478.31170654296875 L 729.5390625 458.306640625 C 729.5390625 450.4141540527344 737.7271118164062 444.0107421875 747.8397216796875 444.0107421875 C 757.9429321289062 444.0107421875 766.1401977539062 450.4141540527344 766.1401977539062 458.306640625 L 766.1401977539062 478.31170654296875 C 766.1401977539062 486.2112121582031 757.9429321289062 492.6075134277344 747.8397216796875 492.6075134277344 Z M 747.8397216796875 492.6075134277344 " fill="#1A1A1A" stroke="none" stroke-width="2.464041558846938" stroke-linecap="butt" stroke-linejoin="miter" transform="matrix(1 0 0 1 -411.988 92.4327)" class="" fill-opacity="1"/><path d="M 355.48724365234375 264.5831298828125 C 350.6802978515625 264.5831298828125 346.7880859375 261.14764404296875 346.7880859375 256.9048156738281 L 346.7881164550781 246.159912109375 C 346.7880859375 241.9208221435547 350.6802978515625 238.4815216064453 355.4872741699219 238.48150634765625 C 360.2896423339844 238.48150634765625 364.18634033203125 241.92079162597656 364.18634033203125 246.15988159179688 L 364.1864318847656 256.9048156738281 C 364.18634033203125 261.1476745605469 360.2896423339844 264.5830993652344 355.48724365234375 264.5831298828125 Z M 355.48724365234375 264.5831298828125 " fill="#FFFFFF" stroke="none" stroke-width="1.1380918247633895" stroke-linecap="butt" stroke-linejoin="miter" transform="matrix(0.999963 0.00863029 -0.00863029 0.999963 -27.5706 297.428)" class="" fill-opacity="1"/></g>
            </g>
            <g class="foreground-layers">
                <g class="layer guides" visibility="visible" locked=""/>
            </g>
        </g>
    <jvs:data xmlns="http://www.w3.org/1999/xhtml" xmlns:jvs="http://www.janvas.com/jvs"><jvs:data id="page-preferences">{"snapDistance":10,"snapAngle":45,"fixedDecimals":2,"gridStep":1,"moveStep":1,"rotationStep":90,"snapToGrid":false,"snapToBBoxProjections":false,"snapToPageBBox":true,"snapToPoints":true,"snapToSegments":true,"snapToGuides":true,"snapToSmartGuides":true,"snapToSmartPoints":true,"snapToLockedElements":true,"pageMargin":0,"elementsMargin":0,"zoomInOutUsingMouseWheel":true,"gridVisibilityState":false,"pageOriginVisibilityState":true,"guideVisibilityState":true,"guideLockState":true,"scaleText":true,"scaleStrokeAndEffects":true,"drawingScale":1,"unitKey":"PIXEL","unitValue":1,"origin":{"x":0,"y":0},"selectGroupChildren":false,"pageOriginVisibility":false}</jvs:data></jvs:data></svg></svg>